<?xml version="1.0" encoding="UTF-8"?>
<svg xmlns="http://www.w3.org/2000/svg" xmlns:xlink="http://www.w3.org/1999/xlink" width="27px" height="px" viewBox="0 0 27 27" version="1.1">
<g id="surface1">
<path style=" stroke:none;fill-rule:nonzero;fill:rgb(0%,0%,0%);fill-opacity:1;" d="M 9.03125 20.957031 C 9.03125 21.0625 8.90625 21.148438 8.746094 21.148438 C 8.566406 21.164062 8.441406 21.078125 8.441406 20.957031 C 8.441406 20.851562 8.566406 20.765625 8.726562 20.765625 C 8.890625 20.75 9.03125 20.835938 9.03125 20.957031 Z M 7.339844 20.71875 C 7.300781 20.824219 7.410156 20.945312 7.570312 20.976562 C 7.714844 21.03125 7.875 20.976562 7.910156 20.871094 C 7.941406 20.765625 7.839844 20.644531 7.675781 20.597656 C 7.535156 20.5625 7.375 20.613281 7.339844 20.71875 Z M 9.742188 20.628906 C 9.585938 20.667969 9.476562 20.765625 9.492188 20.886719 C 9.511719 20.992188 9.652344 21.0625 9.816406 21.023438 C 9.972656 20.988281 10.082031 20.886719 10.066406 20.78125 C 10.046875 20.683594 9.902344 20.613281 9.742188 20.628906 Z M 13.324219 0.421875 C 5.777344 0.421875 0 5.976562 0 13.289062 C 0 19.136719 3.800781 24.140625 9.226562 25.902344 C 9.921875 26.023438 10.167969 25.609375 10.167969 25.265625 C 10.167969 24.9375 10.152344 23.132812 10.152344 22.027344 C 10.152344 22.027344 6.339844 22.816406 5.542969 20.457031 C 5.542969 20.457031 4.921875 18.921875 4.027344 18.527344 C 4.027344 18.527344 2.78125 17.699219 4.117188 17.714844 C 4.117188 17.714844 5.472656 17.820312 6.214844 19.074219 C 7.410156 21.109375 9.40625 20.523438 10.183594 20.175781 C 10.308594 19.332031 10.664062 18.746094 11.054688 18.398438 C 8.011719 18.070312 4.941406 17.644531 4.941406 12.570312 C 4.941406 11.121094 5.355469 10.394531 6.226562 9.464844 C 6.085938 9.121094 5.625 7.710938 6.367188 5.886719 C 7.507812 5.542969 10.125 7.308594 10.125 7.308594 C 11.214844 7.011719 12.382812 6.859375 13.542969 6.859375 C 14.703125 6.859375 15.875 7.011719 16.960938 7.308594 C 16.960938 7.308594 19.582031 5.535156 20.71875 5.886719 C 21.464844 7.714844 21 9.121094 20.859375 9.464844 C 21.730469 10.398438 22.265625 11.125 22.265625 12.570312 C 22.265625 17.660156 19.058594 18.066406 16.015625 18.398438 C 16.515625 18.816406 16.941406 19.605469 16.941406 20.847656 C 16.941406 22.621094 16.925781 24.820312 16.925781 25.253906 C 16.925781 25.597656 17.175781 26.015625 17.867188 25.890625 C 23.308594 24.140625 27 19.136719 27 13.289062 C 27 5.976562 20.875 0.421875 13.324219 0.421875 Z M 5.292969 18.609375 C 5.21875 18.664062 5.238281 18.785156 5.328125 18.882812 C 5.417969 18.96875 5.542969 19.003906 5.613281 18.9375 C 5.683594 18.882812 5.667969 18.761719 5.574219 18.664062 C 5.488281 18.578125 5.363281 18.542969 5.292969 18.609375 Z M 4.703125 18.183594 C 4.664062 18.25 4.71875 18.335938 4.828125 18.386719 C 4.914062 18.441406 5.023438 18.425781 5.0625 18.351562 C 5.101562 18.28125 5.046875 18.199219 4.9375 18.144531 C 4.828125 18.113281 4.742188 18.128906 4.703125 18.183594 Z M 6.46875 20.058594 C 6.378906 20.128906 6.414062 20.285156 6.539062 20.386719 C 6.664062 20.507812 6.820312 20.523438 6.890625 20.441406 C 6.960938 20.371094 6.929688 20.214844 6.820312 20.113281 C 6.699219 19.992188 6.539062 19.976562 6.46875 20.058594 Z M 5.847656 19.285156 C 5.757812 19.335938 5.757812 19.476562 5.847656 19.597656 C 5.933594 19.71875 6.082031 19.769531 6.152344 19.71875 C 6.238281 19.648438 6.238281 19.511719 6.152344 19.390625 C 6.074219 19.269531 5.933594 19.214844 5.847656 19.285156 Z M 5.847656 19.285156 "/>
</g>
</svg>
