<?xml version="1.0" encoding="UTF-8"?>
<svg xmlns="http://www.w3.org/2000/svg" xmlns:xlink="http://www.w3.org/1999/xlink" width="27px" height="px" viewBox="0 0 27 30" version="1.1">
<g id="surface1">
<path style=" stroke:none;fill-rule:nonzero;fill:rgb(0%,0%,0%);fill-opacity:1;" d="M 25.070312 1.875 L 1.921875 1.875 C 0.863281 1.875 0 2.726562 0 3.765625 L 0 26.234375 C 0 27.273438 0.863281 28.125 1.921875 28.125 L 25.070312 28.125 C 26.132812 28.125 27 27.273438 27 26.234375 L 27 3.765625 C 27 2.726562 26.132812 1.875 25.070312 1.875 Z M 8.160156 24.375 L 4.160156 24.375 L 4.160156 11.847656 L 8.167969 11.847656 L 8.167969 24.375 Z M 6.160156 10.136719 C 4.875 10.136719 3.839844 9.125 3.839844 7.882812 C 3.839844 6.640625 4.875 5.625 6.160156 5.625 C 7.4375 5.625 8.480469 6.640625 8.480469 7.882812 C 8.480469 9.128906 7.441406 10.136719 6.160156 10.136719 Z M 23.160156 24.375 L 19.160156 24.375 L 19.160156 18.28125 C 19.160156 16.828125 19.128906 14.960938 17.078125 14.960938 C 14.996094 14.960938 14.675781 16.539062 14.675781 18.175781 L 14.675781 24.375 L 10.671875 24.375 L 10.671875 11.847656 L 14.511719 11.847656 L 14.511719 13.558594 L 14.566406 13.558594 C 15.101562 12.574219 16.410156 11.535156 18.359375 11.535156 C 22.40625 11.535156 23.160156 14.132812 23.160156 17.507812 Z M 23.160156 24.375 "/>
</g>
</svg>
